# xmcd
# 
# Track frame offsets:
#     150
#     18960
#     34987
#     52882
#     68965
#     88107
#     100142
#     118482
#     135585
#     152427
#     167610
#     184935
#     202490
#     219970
# 
# Disc length: 3178
# 
# Revision: 4
# Processed by: cddbd v1.5.2PL0 Copyright (c) Steve Scherf et al.
# Submitted via: BonkEnc v1.0.8
# 
DISCID=c60c680e
DTITLE=Roberta Miranda - Historias de Amor
DYEAR=0
DGENRE=
TTITLE0=Chora no meu colo
TTITLE1=Perder voce
TTITLE2=Deixando a vida fluir
TTITLE3=Faz amor comigo
TTITLE4=Tenho medo
TTITLE5=Atração fatal
TTITLE6=Té difícil esquecer
TTITLE7=Anel brilhante
TTITLE8=Me devolva a vida
TTITLE9=Estou só
TTITLE10=A vida é um carnaval
TTITLE11=Terra Genuína
TTITLE12=Bolero nunca mais
TTITLE13=A rural II
EXTD=
EXTT0=
EXTT1=
EXTT2=
EXTT3=
EXTT4=
EXTT5=
EXTT6=
EXTT7=
EXTT8=
EXTT9=
EXTT10=
EXTT11=
EXTT12=
EXTT13=
PLAYORDER=
